<?xml version="1.0" encoding="iso-8859-1"?>
<!-- Generator: Adobe Illustrator 19.0.0, SVG Export Plug-In . SVG Version: 6.00 Build 0)  -->
<svg version="1.1" id="Capa_1" xmlns="http://www.w3.org/2000/svg" xmlns:xlink="http://www.w3.org/1999/xlink" x="0px" y="0px"
	 viewBox="0 0 512.001 512.001" style="enable-background:new 0 0 512.001 512.001;" xml:space="preserve">
<g>
	<g>
		<path d="M467.686,201.826h-4.08c-10.353-72.554-58.613-136.122-129.309-164.495h93.835c3.336,12.825,15.014,22.321,28.868,22.321
			c16.446,0,29.826-13.38,29.826-29.826S473.444,0,456.999,0c-13.854,0-25.531,9.496-28.868,22.321H286.383v-3.078
			C286.383,8.632,277.75,0,267.14,0h-21.163c-10.611,0-19.244,8.633-19.244,19.243v3.077H83.768C80.431,9.496,68.755,0,54.9,0
			C38.455,0,25.075,13.38,25.075,29.826S38.455,59.652,54.9,59.652c13.854,0,25.531-9.496,28.867-22.321h95.052
			C108.152,65.692,59.866,129.245,49.511,201.826h-5.192c-10.611,0-19.244,8.633-19.244,19.243v21.163
			c0,10.611,8.633,19.243,19.244,19.243h21.163c10.611,0,19.243-8.633,19.243-19.243v-21.163c0-10.611-8.633-19.243-19.243-19.243
			h-0.81c12.78-82.94,79.132-149.349,162.06-162.203v0.783c0,10.611,8.633,19.244,19.244,19.244h21.163
			c10.611,0,19.243-8.633,19.243-19.244v-0.783c82.928,12.853,149.28,79.263,162.06,162.203h-1.92
			c-10.611,0-19.244,8.633-19.244,19.243v21.163c0,10.611,8.633,19.243,19.244,19.243h21.162c10.611,0,19.244-8.633,19.244-19.243
			v-21.163C486.929,210.459,478.297,201.826,467.686,201.826z M442.23,28.927c0.469-7.751,6.904-13.917,14.77-13.917
			c8.169,0,14.816,6.646,14.816,14.816s-6.646,14.816-14.816,14.816c-7.865,0-14.3-6.166-14.77-13.915
			c0.035-0.295,0.059-0.594,0.059-0.9C442.289,29.522,442.265,29.222,442.23,28.927z M54.9,44.641
			c-8.169,0-14.816-6.646-14.816-14.816c0-8.169,6.646-14.815,14.816-14.815s14.815,6.646,14.815,14.816S63.069,44.641,54.9,44.641z
			 M65.481,216.837c2.335-0.001,4.234,1.898,4.234,4.233v21.163c0,2.335-1.899,4.233-4.233,4.233H44.318
			c-2.335,0-4.234-1.898-4.234-4.233V221.07c0-2.335,1.899-4.233,4.234-4.233H65.481z M271.372,40.407
			c0.001,2.335-1.898,4.234-4.233,4.234h-21.163c-2.335,0-4.234-1.899-4.234-4.234c0-8.133,0-13.271,0-21.163
			c0-2.335,1.899-4.233,4.234-4.233h21.163c2.335,0,4.233,1.898,4.233,4.233C271.372,27.155,271.372,32.269,271.372,40.407z
			 M471.919,242.233c0,2.335-1.899,4.233-4.234,4.233h-21.162c-2.335,0-4.234-1.898-4.234-4.233V221.07
			c0-2.335,1.899-4.233,4.234-4.233h21.162c2.335,0,4.234,1.898,4.234,4.233V242.233z"/>
	</g>
</g>
<g>
	<g>
		<path d="M330.413,365.872l56.201-56.993c2.911-2.951,2.878-7.702-0.073-10.612c-2.952-2.912-7.705-2.879-10.614,0.073
			l-56.201,56.992c-4.969,5.038-7.705,11.711-7.705,18.787v25.788h-109.93v-25.788c0-7.078-2.737-13.75-7.705-18.789l-58.654-59.477
			c-4.219-4.279-4.825-10.988-1.442-15.954l115.261-169.146V276.54h-2.858c-14.456,0-26.216,11.761-26.216,26.215
			c0,14.456,11.761,26.216,26.216,26.216h20.727c14.456,0,26.216-11.761,26.216-26.216c0-14.455-11.761-26.215-26.216-26.215h-2.858
			V110.752l110.432,162.062c2.335,3.424,7.002,4.309,10.429,1.976c3.425-2.335,4.31-7.004,1.976-10.429L269.113,90.777
			c-5.787-8.493-18.349-8.457-24.114,0L121.886,271.446c-7.412,10.876-6.084,25.574,3.158,34.946l58.654,59.478
			c2.181,2.211,3.382,5.141,3.382,8.249v26.012c-9.437,1.363-16.719,9.481-16.719,19.29v29.076c0,10.759,8.754,19.513,19.513,19.513
			h8.868v25.586c0,10.149,8.255,18.404,18.403,18.404h21.345c4.145,0,7.505-3.359,7.505-7.505s-3.36-7.505-7.505-7.505h-21.344
			c-1.871,0-3.393-1.522-3.393-3.394v-25.586h86.608v25.586c0,1.871-1.522,3.394-3.393,3.394h-23.454
			c-4.146,0-7.505,3.359-7.505,7.505s3.359,7.505,7.505,7.505h23.454c10.148,0,18.403-8.255,18.403-18.404v-25.586h8.868
			c10.759,0,19.513-8.754,19.513-19.513v-29.076c0-9.809-7.283-17.927-16.72-19.29v-26.012
			C327.031,371.012,328.232,368.083,330.413,365.872z M267.42,291.551c6.179-0.001,11.206,5.026,11.206,11.205
			s-5.027,11.206-11.206,11.206h-20.727c-6.179,0-11.206-5.027-11.206-11.206s5.027-11.205,11.206-11.205H267.42z M328.741,419.422
			v29.076c0,2.441-2.062,4.503-4.503,4.503c-4.93,0-129.518,0-134.364,0c-2.441,0-4.503-2.062-4.503-4.503v-29.076
			c0-2.441,2.062-4.503,4.503-4.503c4.841,0,129.479,0,134.364,0C326.679,414.919,328.741,416.98,328.741,419.422z"/>
	</g>
</g>
<g>
</g>
<g>
</g>
<g>
</g>
<g>
</g>
<g>
</g>
<g>
</g>
<g>
</g>
<g>
</g>
<g>
</g>
<g>
</g>
<g>
</g>
<g>
</g>
<g>
</g>
<g>
</g>
<g>
</g>
</svg>
