<?xml version="1.0" encoding="iso-8859-1"?>
<!-- Generator: Adobe Illustrator 19.0.0, SVG Export Plug-In . SVG Version: 6.00 Build 0)  -->
<svg version="1.1" id="Layer_1" xmlns="http://www.w3.org/2000/svg" xmlns:xlink="http://www.w3.org/1999/xlink" x="0px" y="0px"
	 viewBox="0 0 512 512" style="enable-background:new 0 0 512 512;" xml:space="preserve">
<g>
	<g>
		<g>
			<path d="M454.613,0H57.387C25.707,0,0,25.707,0,57.387v397.227C0,486.293,25.707,512,57.387,512h397.227
				c31.68,0,57.387-25.707,57.387-57.387V57.387C512,25.707,486.293,0,454.613,0z M490.667,454.613
				c0,19.947-16.107,36.053-36.053,36.053H57.387c-19.947,0-36.053-16.107-36.053-36.053V57.387
				c0-19.947,16.107-36.053,36.053-36.053h397.227c19.947,0,36.053,16.107,36.053,36.053V454.613z"/>
			<path d="M242.88,166.72c-12.48-11.84-31.467-17.707-56.213-17.707c-16.107-0.107-32.107,1.387-48,4.267v216.853h26.667V281.6
				c5.44,1.28,11.733,1.6,18.773,1.6c24.747,0,47.36-8.107,61.013-24.427c10.133-11.093,15.573-26.347,15.573-46.187
				C260.693,193.067,253.973,177.067,242.88,166.72z M184.64,261.333c-7.68,0-14.187-0.32-19.307-1.92V173.12
				c7.467-1.387,14.933-2.027,22.507-1.92c29.867,0,46.933,16,46.933,43.307C234.773,244.693,215.467,261.333,184.64,261.333z"/>
			<path d="M335.04,278.613c-18.667-8.747-26.347-14.613-26.347-26.987c0-11.413,8.32-21.12,24.107-21.12
				c10.133,0,20.053,2.987,28.587,8.427l6.72-20.16c-8-4.907-20.267-9.173-35.093-9.173c-30.507,0-50.453,19.84-50.453,45.227
				c0,18.88,12.587,33.92,38.293,44.907c19.307,8.747,26.347,16.32,26.347,29.333c0,13.653-9.28,23.467-27.947,23.467
				c-12.907,0-26.347-5.547-33.707-10.453l-6.72,20.8c9.6,6.187,24.427,10.453,39.893,10.453c33.387,0,54.613-18.24,54.613-47.253
				C373.333,303.04,359.147,288.96,335.04,278.613z"/>
		</g>
	</g>
</g>
<g>
</g>
<g>
</g>
<g>
</g>
<g>
</g>
<g>
</g>
<g>
</g>
<g>
</g>
<g>
</g>
<g>
</g>
<g>
</g>
<g>
</g>
<g>
</g>
<g>
</g>
<g>
</g>
<g>
</g>
</svg>
