<?xml version="1.0" encoding="utf-8"?>
<!-- Generator: Adobe Illustrator 26.0.2, SVG Export Plug-In . SVG Version: 6.00 Build 0)  -->
<svg version="1.1" id="Camada_1" xmlns="http://www.w3.org/2000/svg" xmlns:xlink="http://www.w3.org/1999/xlink" x="0px" y="0px"
	 viewBox="0 0 981.2 1044" style="enable-background:new 0 0 981.2 1044;" xml:space="preserve">
<g id="Camada_2_00000039813907193220614690000017686064434142652591_">
	<path style="fill: #fff" d="M309.2,456.2c52.7-10.6,104.2-26.6,153.8-47.6c6.2-2.5,12.3-5.4,18.5-8.1c3.1-1.3,6.1-2.8,9.2-4.2l9.1-4.3
		c12-6,24.1-12,35.8-18.6c2.9-1.6,5.9-3.2,8.8-4.9l8.7-5l4.4-2.5c1.4-0.9,2.9-1.7,4.3-2.6l8.6-5.2c2.9-1.7,5.7-3.6,8.5-5.4
		s5.7-3.6,8.5-5.4l8.4-5.6l4.2-2.8l4.2-2.9l8.3-5.8c2.8-1.9,5.4-4,8.2-5.9s5.5-3.9,8.1-6l8-6.1l4-3.1l4-3.1l7.9-6.3
		c2.6-2.1,5.2-4.3,7.8-6.4s5.2-4.3,7.8-6.5c20.5-17.5,40.1-36,58.7-55.5c2.3-2.4,4.6-4.9,6.9-7.4s4.6-4.9,6.8-7.4l6.7-7.6l3.3-3.8
		l3.3-3.9l6.5-7.7c1.1-1.3,2.1-2.5,3.1-3.8s2-2.5,3-3.8c3.9-5,7.7-10.2,11.2-15.5c6.9-10.3,12.8-21.3,17.5-32.7
		c4.5-11.1,7.3-22.5,7.6-33c0.2-5.1-0.3-10.2-1.5-15.1c-1.2-4.8-3.1-9.3-5.7-13.5c-2.6-4.3-5.9-8.2-9.6-11.6
		c-4.1-3.6-8.6-6.7-13.4-9.3c-10.1-5.4-21.9-9.2-34.4-11.8c-6.2-1.3-12.7-2.3-19.2-3.2s-12.9-1.4-19.3-1.6c-3.2-0.2-6.4-0.1-9.5-0.1
		s-6.3,0.2-9.4,0.5c-6.1,0.4-12.2,1.4-18.2,2.8c-5.8,1.3-11.5,3.2-17,5.7c-16.5,7.4-30,20.1-38.7,36c-6.1,10.8-10.4,22.9-13.4,35.6
		c-2.9,13-4.8,26.1-5.5,39.4c-0.8,13.6-0.8,27.1-0.2,40.7c0.2,3.4,0.3,6.8,0.5,10.3s0.5,6.9,0.7,10.4l1.5,20.8
		c0.9,13.9,2.2,27.6,3.5,41.5c5.2,55.3,12.4,110.3,21.6,165.2c9.2,54.8,20.4,109.3,34.5,163s30.9,106.8,49.4,159.1
		c4.7,13.1,9.2,26.2,14.2,39.1s9.7,26,14.9,38.8l7.7,19.3l3.9,9.7c1.3,3.3,2.6,6.6,3.9,10c5.2,13.5,9.4,27.4,12.4,41.6
		c1.5,7.3,2.5,14.8,3,22.3c0.2,3.8,0.2,7.7,0.2,11.6c-0.2,4-0.5,7.9-1.2,11.8c-0.6,4-1.6,8-2.8,11.9c-0.7,2-1.3,4-2.2,5.9l-1.2,2.9
		l-1.4,2.8c-3.9,7.6-9.3,14.5-15.7,20.2c-6.3,5.6-13.4,10.1-21.2,13.5c-7.1,3.1-14.3,5.6-21.8,7.6c-7.1,1.8-14.2,3.8-21.5,5l-5.4,1
		l-2.7,0.5l-2.7,0.4l-10.9,1.6c-1.8,0.3-3.6,0.4-5.5,0.6l-5.5,0.5l-5.5,0.5c-1.8,0.2-3.7,0.2-5.5,0.3l-11,0.4h-10.9
		c-1.8,0-3.7,0-5.5,0l-5.4-0.2l-5.4-0.2c-1.8-0.1-3.6-0.1-5.4-0.3l-10.8-0.8l-2.7-0.2l-2.7-0.3l-5.4-0.6c-7.2-0.7-14.3-1.8-21.4-2.7
		c-3.6-0.5-7.1-1.1-10.6-1.7l-5.3-0.9c-1.8-0.3-3.5-0.6-5.3-1l-10.6-1.9l-10.5-2.2c-3.5-0.7-7-1.5-10.4-2.2l-10.4-2.3
		c-13.8-3.2-27.5-6.6-41.1-10.2c-6.8-1.8-13.6-3.5-20.4-5.4l-20.3-5.6c-6.8-1.8-13.5-3.9-20.3-5.8s-13.5-3.9-20.3-5.9l-20.2-6.1
		l-20.2-6.3l-10.1-3.2l-10-3.3c-6.7-2.2-13.4-4.4-20.1-6.6c-13.3-4.6-26.7-9.1-39.9-13.9c-13.3-4.7-26.5-9.6-39.8-14.5
		c-6.6-2.5-13.2-5.1-19.8-7.6l-9.9-3.8l-9.8-3.9c-26.3-10.4-52.3-21.4-78.2-32.7S25.6,868.5,0,856.2l36.5-68.7l17.8,10.2
		c3,1.7,5.9,3.4,8.9,5.1l9,5c6,3.3,11.9,6.7,18,10l18.1,9.7l4.5,2.4l4.6,2.4l9.1,4.8c6.1,3.2,12.1,6.4,18.3,9.4l18.4,9.3l18.5,9
		l9.3,4.5l9.3,4.4c6.2,2.9,12.4,5.9,18.7,8.7c12.5,5.7,25,11.4,37.6,16.9s25.2,10.8,37.9,16.2c6.3,2.7,12.7,5.2,19.1,7.8l9.6,3.9
		l9.6,3.8l19.2,7.5l19.2,7.3c6.4,2.5,12.9,4.8,19.4,7.1s13,4.7,19.5,6.9l19.5,6.7c6.5,2.3,13.1,4.3,19.6,6.5
		c13.1,4.4,26.2,8.5,39.2,12.5l9.8,2.9c3.3,1,6.5,1.9,9.8,2.8l9.8,2.7l9.8,2.5c1.6,0.4,3.3,0.8,4.9,1.2l4.9,1.1
		c3.3,0.7,6.6,1.5,9.9,2.2c6.6,1.3,13.2,2.7,19.8,3.7l5,0.8l2.5,0.4l2.5,0.3l9.9,1.3c1.7,0.2,3.3,0.4,5,0.6l5,0.5l5,0.5
		c1.7,0.2,3.3,0.2,5,0.3l9.9,0.6l9.9,0.2c1.7,0,3.3,0.1,5,0.1l4.9-0.1l4.9-0.1c1.7-0.1,3.3,0,4.9-0.2l9.8-0.8l2.5-0.2l2.4-0.3
		l4.9-0.6c6.6-0.7,12.9-2.1,19.4-3.3c12.8-2.7,24.3-6.4,32.4-12.9c1-0.8,2-1.7,3-2.6c0.5-0.5,1-0.9,1.4-1.4l1.3-1.5
		c0.5-0.5,0.9-1,1.3-1.5l1.2-1.6l1.1-1.7l0.6-0.8l0.5-0.9l1-1.8l0.9-1.8c0.7-1.2,1.1-2.5,1.7-3.8c1-2.7,1.8-5.5,2.4-8.3
		c0.6-2.9,1.1-5.9,1.4-8.8c0.2-3,0.4-6.1,0.4-9.3c0-6.4-0.5-12.8-1.5-19.2c-2.1-13.2-5.2-26.2-9.3-38.9c-1-3.2-2.1-6.5-3.2-9.7
		l-3.3-9.9l-6.7-19.9c-4.5-13.2-8.6-26.6-12.8-39.9s-8.2-26.7-12.2-40c-15.8-53.5-29.9-107.5-43.2-161.6s-25.8-108.4-36.8-163.1
		s-20.2-109.7-28-165c-1.8-13.8-3.9-27.6-5.5-41.5l-2.5-20.8l-1.3-10.4c-0.4-3.5-0.8-7-1.1-10.6c-1.3-14.1-2.1-28.3-2.1-42.7
		c0-14.6,1.2-29.1,3.6-43.5c2.5-14.9,7.1-29.4,13.6-43.1c3.4-7.1,7.6-13.8,12.3-20c4.8-6.4,10.2-12.2,16.3-17.4
		c6.2-5.2,12.9-9.6,20-13.4c7.1-3.6,14.5-6.6,22.1-8.9c7.4-2.2,15.1-3.8,22.8-4.8c3.8-0.6,7.6-0.9,11.4-1.2s7.6-0.5,11.3-0.5
		c7.5-0.1,15,0.1,22.4,0.6s14.7,1.3,22.2,2.4c14.9,2.3,30.1,6.1,45,13.1c7.7,3.6,14.9,8.1,21.5,13.4c1.7,1.3,3.3,2.9,5,4.3
		c0.4,0.4,0.8,0.7,1.2,1.1l1.2,1.2l2.3,2.4c1.6,1.6,2.9,3.4,4.3,5.1c0.7,0.9,1.4,1.7,2.1,2.7l1.9,2.8c5.1,7.5,8.9,15.7,11.5,24.3
		c2.5,8.5,3.8,17.3,3.9,26.1c0.1,8.4-0.7,16.8-2.3,25.1c-1.6,7.9-3.7,15.7-6.4,23.2c-5.3,14.5-12.1,28.4-20.2,41.5
		c-4,6.5-8.1,12.7-12.6,18.8c-1.1,1.5-2.2,3-3.3,4.5s-2.3,3.1-3.4,4.4l-6.7,8.4l-3.3,4.2l-3.4,4.1l-6.9,8.3c-2.3,2.8-4.7,5.4-7,8.1
		s-4.7,5.4-7.1,8.1c-19.2,21.3-39.5,41.6-60.9,60.8c-21.4,19.1-43.9,37.1-67.3,53.8l-4.4,3.1l-4.4,3.1l-8.9,6.1c-3,2-6,4-9,5.9
		s-6,4-9,5.9l-9.1,5.7c-1.5,1-3,1.9-4.6,2.8l-4.6,2.8l-9.3,5.5c-3.1,1.8-6.2,3.5-9.4,5.3c-12.5,7.1-25.3,13.7-38.1,20.1l-9.7,4.7
		c-3.2,1.5-6.5,3.1-9.8,4.6c-6.6,2.9-13.1,6-19.7,8.7l-9.9,4.2l-10,4c-6.7,2.7-13.4,5.1-20.2,7.6c-3.4,1.3-6.8,2.4-10.2,3.6
		l-10.2,3.5l-10.4,3.3c-3.4,1.1-6.8,2.2-10.3,3.2c-27.6,8.3-55.6,14.9-83.9,20L309.2,456.2z"/>
</g>
<g id="Camada_3">
	<path style="fill: #fff" d="M736,922c-1.5,4.2-3.7,8-6.5,11.4c-0.4,0.5-0.8,1-1.2,1.5l-1.3,1.3c-0.4,0.4-0.9,0.9-1.3,1.3l-1.4,1.2
		c-1.8,1.7-3.8,3.1-6,4.3c-4.3,2.3-9.1,3.8-14,4.3c-9.9,1-20-1.1-29.7-4.3c-4.8-1.6-9.6-3.5-14.3-5.6c-2.3-1-4.7-2.2-7.1-3.3
		l-7.1-3.4l-7.1-3.4c-2.3-1.1-4.7-2.2-7-3.5l-13.9-7.3l-6.9-3.7c-2.3-1.3-4.5-2.6-6.8-3.9l-13.6-7.8c-1.1-0.7-2.3-1.3-3.4-2
		l-3.3-2.1l-13.3-8.3l-3.3-2.1c-1.1-0.7-2.2-1.4-3.3-2.1l-12.9-8.7l-6.5-4.4c-2.1-1.5-4.2-3-6.3-4.6l-12.6-9.2l-3.2-2.3l-3.1-2.4
		l-6.1-4.8c-4.1-3.2-8.2-6.4-12.2-9.6l-11.9-10l-5.9-5c-2-1.7-3.9-3.5-5.8-5.2l-11.5-10.4l-2.9-2.6l-2.8-2.7l-5.6-5.4
		c-3.7-3.6-7.4-7.2-11.1-10.8l-10.7-11.2l-5.4-5.6l-1.3-1.4l-1.3-1.5l-2.6-2.9c-27.7-30.5-52.8-63.3-75-98l-29,19.6
		c25.2,34.9,53.4,67.5,84.1,97.6l2.8,2.8l1.4,1.4l1.5,1.4l5.9,5.5l11.8,10.9c4,3.5,8.2,7,12.2,10.5l6.1,5.2l3,2.6l3.1,2.5l12.5,10
		c2.1,1.7,4.1,3.4,6.3,5l6.4,4.8l13,9.5c4.3,3.1,8.8,6.1,13.2,9.1c17.5,12.2,35.8,23.2,54.2,33.9c1.1,0.7,2.3,1.3,3.5,2l3.5,1.9
		l7,3.8l7,3.8l3.5,1.9c1.2,0.6,2.4,1.2,3.6,1.8l14.3,7c2.4,1.2,4.8,2.4,7.2,3.5l7.3,3.2l14.5,6.5c2.4,1.1,4.9,2,7.3,3l14.7,6
		c2.4,1,4.9,2,7.4,2.9c5,1.9,10.2,3.5,15.4,4.9c5.3,1.4,10.6,2.4,16.1,2.9c5.5,0.6,11.1,0.4,16.5-0.5c5.5-0.9,10.9-2.9,15.6-5.9
		c1.2-0.8,2.3-1.6,3.4-2.5l1.6-1.3l1.5-1.5l1.4-1.5c0.4-0.5,0.8-1.1,1.2-1.7l1.2-1.7c0.4-0.6,0.7-1.2,1-1.8
		c1.9-3.6,3.3-7.5,4.2-11.4C736.1,923.1,736,922.6,736,922z"/>
	<path style="fill: #fff" d="M688.7,496.2c-30.3-13.4-56.9-25.2-76-33.7c1.2,2.5,2.2,5.1,2.7,7.9C713.9,535.6,812.4,600.8,911,666l39.1-53.9
		C892.5,586.6,775.5,534.7,688.7,496.2z"/>
	<path style="fill: #fff" d="M1460.4,988.2"/>
</g>
</svg>
