<svg xmlns="http://www.w3.org/2000/svg" viewBox="0 0 981.18 1044"><title>LOGO FELIPE</title><g id="Camada_2" data-name="Camada 2"><path d="M775.25,477.44A797.72,797.72,0,0,0,929,429.83c6.22-2.55,12.31-5.4,18.47-8.1,3.09-1.33,6.1-2.83,9.15-4.25l9.12-4.31c12-6,24.07-12,35.82-18.56,2.94-1.63,5.9-3.23,8.83-4.89l8.73-5.05,4.37-2.52c1.45-.85,2.88-1.74,4.32-2.6l8.63-5.23c2.89-1.72,5.69-3.59,8.54-5.38s5.69-3.59,8.5-5.44l8.4-5.59,4.21-2.79,4.15-2.88,8.29-5.77c2.77-1.91,5.45-3.95,8.18-5.91s5.46-3.94,8.14-6l8-6.12,4-3.06,4-3.14,7.91-6.29c2.64-2.09,5.19-4.29,7.79-6.43s5.2-4.28,7.75-6.49A794.19,794.19,0,0,0,1193,247.49c2.34-2.42,4.59-4.93,6.9-7.39s4.62-4.92,6.84-7.45l6.7-7.57,3.35-3.79,3.26-3.86,6.53-7.73c1.13-1.31,2.06-2.5,3.1-3.76s2-2.51,3-3.76c3.93-5,7.67-10.22,11.16-15.51a187.54,187.54,0,0,0,17.54-32.74c4.51-11.14,7.34-22.47,7.6-33a57.76,57.76,0,0,0-1.49-15.13,48.37,48.37,0,0,0-5.66-13.54,52.7,52.7,0,0,0-9.59-11.55,65.72,65.72,0,0,0-13.38-9.26c-10.05-5.37-21.9-9.17-34.36-11.81-6.23-1.31-12.69-2.34-19.16-3.17s-12.89-1.36-19.27-1.6c-3.2-.16-6.36-.11-9.53-.12s-6.3.18-9.39.49A117.48,117.48,0,0,0,1128.94,58a95.55,95.55,0,0,0-17,5.65,82.75,82.75,0,0,0-38.65,35.95c-6.1,10.75-10.42,22.89-13.43,35.58a240.19,240.19,0,0,0-5.5,39.39,404.87,404.87,0,0,0-.24,40.7c.15,3.42.31,6.84.51,10.26s.46,6.91.7,10.36l1.47,20.75c.87,13.85,2.24,27.65,3.46,41.47Q1068,381,1081.84,463.27c9.18,54.79,20.44,109.28,34.52,163s30.87,106.79,49.44,159.11c4.7,13.06,9.23,26.18,14.25,39.12s9.71,26,14.94,38.84l7.7,19.32,3.86,9.68c1.33,3.29,2.64,6.6,3.89,9.95a272.82,272.82,0,0,1,12.39,41.62,156.83,156.83,0,0,1,3,22.29c.25,3.8.25,7.68.15,11.58a100.77,100.77,0,0,1-1.17,11.84,85.35,85.35,0,0,1-2.78,11.93c-.7,2-1.29,4-2.15,5.89l-1.23,2.91-1.42,2.85a69.77,69.77,0,0,1-15.68,20.22,81.17,81.17,0,0,1-21.15,13.46,148.62,148.62,0,0,1-21.8,7.59c-7.13,1.76-14.25,3.76-21.5,5l-5.42,1-2.71.52-2.72.38L1115.3,1063c-1.82.29-3.64.4-5.47.57l-5.47.49-5.48.48c-1.83.15-3.65.18-5.47.27l-11,.45h-10.93c-1.82,0-3.65,0-5.47,0l-5.45-.21-5.45-.22c-1.82-.08-3.64-.12-5.44-.28l-10.84-.82-2.71-.21-2.69-.29-5.39-.58c-7.21-.69-14.31-1.76-21.45-2.73-3.56-.52-7.09-1.14-10.63-1.7l-5.32-.86c-1.77-.3-3.52-.64-5.28-1l-10.56-1.95-10.48-2.15c-3.5-.7-7-1.46-10.44-2.24l-10.4-2.33q-20.71-4.83-41.09-10.18c-6.8-1.79-13.63-3.48-20.4-5.36l-20.35-5.57c-6.79-1.84-13.53-3.86-20.29-5.78s-13.53-3.87-20.26-5.92l-20.23-6.07-20.15-6.32-10.07-3.18-10-3.3c-6.69-2.21-13.4-4.36-20.07-6.64-13.33-4.58-26.68-9.09-39.93-13.91-13.31-4.66-26.51-9.63-39.75-14.53-6.6-2.48-13.17-5.06-19.76-7.58l-9.88-3.81-9.83-3.93c-26.27-10.38-52.3-21.38-78.23-32.68S491.58,889.69,466,877.48l36.47-68.7L520.28,819c3,1.7,5.92,3.44,8.91,5.1l9,5c6,3.32,11.94,6.72,18,10l18.1,9.74,4.53,2.43,4.56,2.38,9.12,4.75c6.08,3.16,12.14,6.37,18.28,9.43l18.37,9.26,18.5,9,9.26,4.5,9.31,4.38c6.22,2.91,12.41,5.87,18.65,8.74,12.51,5.66,25,11.43,37.59,16.87s25.25,10.84,37.92,16.18c6.34,2.66,12.73,5.19,19.1,7.79l9.56,3.88,9.6,3.77,19.23,7.5L837.11,967c6.43,2.46,12.91,4.77,19.4,7.09s12.95,4.7,19.46,6.92l19.54,6.72c6.51,2.26,13.07,4.34,19.61,6.52q19.64,6.55,39.25,12.45l9.81,2.87c3.27,1,6.54,1.9,9.82,2.77l9.83,2.68,9.84,2.48c1.64.41,3.28.84,4.92,1.23l4.93,1.12c3.29.73,6.58,1.52,9.87,2.2,6.58,1.29,13.17,2.7,19.78,3.73l5,.84,2.48.42,2.48.34,9.92,1.35c1.65.25,3.31.39,5,.56l5,.5,5,.5c1.66.18,3.3.22,5,.34l9.93.61,9.91.18c1.65,0,3.31.1,5,.06l4.94-.14,4.94-.14c1.65-.06,3.3,0,4.93-.22l9.83-.76,2.46-.19,2.44-.32,4.88-.64c6.55-.68,12.93-2.11,19.4-3.28,12.78-2.67,24.28-6.36,32.43-12.92a38.66,38.66,0,0,0,3-2.64c.47-.47,1-.9,1.44-1.39l1.33-1.48a15.08,15.08,0,0,0,1.28-1.53l1.23-1.57,1.11-1.67.57-.83.5-.88,1-1.76.9-1.85c.65-1.2,1.09-2.54,1.66-3.82a60.09,60.09,0,0,0,2.42-8.26,76,76,0,0,0,1.39-8.85c.25-3,.44-6.13.4-9.27a133.69,133.69,0,0,0-1.49-19.17,251.81,251.81,0,0,0-9.28-38.9c-1-3.23-2.08-6.46-3.18-9.69l-3.32-9.91-6.66-19.87c-4.54-13.21-8.58-26.58-12.83-39.88s-8.2-26.69-12.22-40c-15.84-53.53-29.9-107.49-43.21-161.6s-25.77-108.42-36.75-163.08-20.25-109.69-28-165c-1.84-13.83-3.92-27.65-5.5-41.52l-2.52-20.8-1.26-10.42c-.4-3.51-.75-7-1.1-10.55-1.32-14.1-2.12-28.33-2.09-42.71a262.89,262.89,0,0,1,3.58-43.49,160.86,160.86,0,0,1,13.6-43.1,120.4,120.4,0,0,1,12.33-20A108.63,108.63,0,0,1,1078.73,50a114.53,114.53,0,0,1,20-13.39,126.05,126.05,0,0,1,22.08-8.86A145.26,145.26,0,0,1,1143.56,23c3.81-.57,7.6-.87,11.4-1.21s7.57-.46,11.33-.48c7.53-.13,15,.07,22.39.63s14.72,1.3,22.18,2.44c14.88,2.32,30.11,6.11,45,13.12a104.35,104.35,0,0,1,21.54,13.42c1.71,1.35,3.31,2.88,5,4.34.41.37.82.73,1.22,1.12l1.16,1.2,2.3,2.42c1.58,1.57,2.93,3.38,4.35,5.11.69.88,1.43,1.74,2.07,2.65l1.9,2.75a89,89,0,0,1,11.53,24.3,98.16,98.16,0,0,1,3.92,26.12,122.3,122.3,0,0,1-2.29,25.12,157.79,157.79,0,0,1-6.44,23.25,224.59,224.59,0,0,1-20.25,41.53q-5.94,9.69-12.57,18.81c-1.12,1.51-2.21,3-3.35,4.53s-2.29,3.05-3.39,4.41l-6.69,8.42-3.35,4.21-3.44,4.14-6.89,8.27c-2.29,2.76-4.69,5.42-7,8.14s-4.69,5.43-7.1,8.08a804.15,804.15,0,0,1-60.93,60.77,801.55,801.55,0,0,1-67.26,53.77l-4.37,3.14-4.43,3.06-8.87,6.11c-3,2-6,4-9,5.93s-6,4-9,5.86l-9.14,5.71c-1.53.95-3,1.92-4.58,2.84l-4.63,2.76-9.27,5.5c-3.11,1.8-6.25,3.54-9.38,5.31-12.5,7.1-25.26,13.73-38.12,20.15l-9.72,4.67c-3.25,1.53-6.46,3.15-9.76,4.59-6.56,2.94-13.07,6-19.73,8.72l-9.93,4.2-10,4c-6.66,2.72-13.43,5.14-20.18,7.64-3.36,1.27-6.77,2.42-10.17,3.59l-10.2,3.51L879,504.93c-3.43,1.08-6.84,2.23-10.3,3.21a756.62,756.62,0,0,1-83.94,20Z" transform="translate(-466.02 -21.23)"/></g><g id="Camada_3" data-name="Camada 3"><path d="M1408.08,692.81a1556,1556,0,0,0-328.61-217.06h0l.45,0a7.3,7.3,0,0,0-3.19,2.19,13.28,13.28,0,0,0-2.06,3.34,23.32,23.32,0,0,0-1.64,7.68c-.33,5.27.61,10.5,1.53,15.66l1.34,7.77,1.53,7.74c1,5.17,2.17,10.29,3.32,15.42,4.67,20.52,10.6,40.73,17.11,60.72s13.77,39.76,21.33,59.39,15.41,39.15,23.22,58.68,15.56,39.09,22.91,58.8,14.23,39.6,20.35,59.73A617.37,617.37,0,0,1,1201.09,894c2.13,10.29,3.75,20.75,3.68,31.28l-.13,3.94c-.05,1.31-.22,2.62-.32,3.93-.3,2.61-.69,5.21-1.2,7.8a51.45,51.45,0,0,1-5,15.23,20,20,0,0,1-1,1.79l-1.2,1.68c-.41.55-.79,1.15-1.24,1.67l-1.43,1.51-1.46,1.5-1.59,1.35a39.6,39.6,0,0,1-3.4,2.45,42,42,0,0,1-15.61,5.9,63.71,63.71,0,0,1-16.53.45,104.22,104.22,0,0,1-16.07-2.91c-5.24-1.37-10.39-3-15.43-4.88-2.54-.92-5-1.93-7.43-2.92l-7.37-3-7.37-3c-2.45-1-4.94-1.93-7.34-3.05l-14.52-6.49-7.27-3.25c-2.4-1.13-4.77-2.33-7.15-3.49l-14.3-7c-1.19-.6-2.4-1.15-3.57-1.78l-3.51-1.88-7-3.77-7-3.78-3.51-1.89c-1.18-.62-2.34-1.26-3.48-1.95-18.42-10.62-36.68-21.65-54.17-33.86-4.38-3-8.82-6-13.16-9.11L942,867l-6.43-4.78c-2.15-1.59-4.19-3.31-6.29-5l-12.53-10-3.13-2.5-3-2.6-6.09-5.23c-4-3.5-8.14-7-12.16-10.49l-11.8-10.89-5.91-5.45-1.47-1.37-1.43-1.41-2.85-2.83a760.5,760.5,0,0,1-84.11-97.6l29-19.63a729.18,729.18,0,0,0,75,98l2.58,2.89,1.29,1.45L894,791l5.36,5.6,10.72,11.21c3.66,3.65,7.4,7.22,11.1,10.84l5.56,5.41,2.79,2.7,2.88,2.6,11.52,10.43c1.94,1.72,3.81,3.52,5.8,5.18l5.94,5,11.9,10c4,3.27,8.15,6.42,12.23,9.63l6.13,4.8,3.07,2.4,3.15,2.29,12.61,9.17c2.11,1.52,4.18,3.09,6.32,4.57l6.46,4.37,12.94,8.74c1.07.74,2.17,1.44,3.28,2.12l3.31,2.07,6.63,4.14,6.63,4.14,3.32,2.07c1.11.69,2.25,1.31,3.38,2l13.56,7.8c2.27,1.29,4.51,2.62,6.8,3.89l6.92,3.65,13.86,7.31c2.29,1.26,4.68,2.32,7,3.47l7.06,3.4,7.07,3.4c2.36,1.13,4.72,2.3,7.06,3.32,4.71,2.09,9.48,4,14.33,5.58,9.67,3.15,19.79,5.25,29.68,4.26a36.89,36.89,0,0,0,14-4.27,29.83,29.83,0,0,0,6-4.3l1.42-1.21c.45-.43.87-.89,1.31-1.33l1.32-1.35c.43-.46.8-1,1.21-1.46a37.51,37.51,0,0,0,7.21-13.65,45.45,45.45,0,0,0,1.43-7.74c.1-1.31.27-2.62.32-3.93l.13-3.94c.07-10.53-1.55-21-3.68-31.28a617.37,617.37,0,0,0-15.42-61.17c-6.12-20.13-13-40-20.35-59.73s-15.1-39.27-22.91-58.8-15.67-39-23.22-58.68-14.81-39.39-21.33-59.39-12.44-40.21-17.11-60.72c-1.14-5.13-2.34-10.26-3.32-15.42l-1.53-7.74-1.34-7.77c-.92-5.17-1.86-10.39-1.53-15.66a23.32,23.32,0,0,1,1.64-7.68,22,22,0,0,1,4.72-6.38l.12-.13.33.08h0a1589.88,1589.88,0,0,1,367.37,164Z" transform="translate(-466.02 -21.23)"/></g></svg>