<?xml version="1.0" standalone="no"?>
<!DOCTYPE svg PUBLIC "-//W3C//DTD SVG 20010904//EN"
 "http://www.w3.org/TR/2001/REC-SVG-20010904/DTD/svg10.dtd">
<svg version="1.0" xmlns="http://www.w3.org/2000/svg"
 width="1044.000000pt" height="1044.000000pt" viewBox="0 0 1044.000000 1044.000000"
 preserveAspectRatio="xMidYMid meet">
<metadata>
Created by potrace 1.14, written by Peter Selinger 2001-2017
</metadata>
<g transform="translate(0.000000,1044.000000) scale(0.100000,-0.100000)"
fill="#000000" stroke="none">
<path d="M7169 10436 c-2 -2 -33 -7 -68 -11 -51 -6 -147 -26 -271 -59 -16 -4
-51 -18 -97 -38 -16 -6 -30 -12 -33 -13 -18 -4 -107 -55 -170 -98 -68 -45
-176 -146 -239 -222 -30 -36 -110 -166 -133 -215 -45 -98 -59 -133 -87 -223
-58 -187 -85 -405 -84 -682 0 -135 9 -329 17 -370 2 -11 7 -56 10 -100 4 -44
9 -87 11 -95 2 -8 6 -42 10 -75 7 -70 12 -112 26 -215 15 -115 19 -143 24
-173 3 -15 8 -53 11 -85 12 -120 18 -154 29 -171 3 -5 1 -13 -5 -16 -7 -4 -7
-11 -2 -18 5 -7 9 -19 9 -27 1 -8 3 -28 7 -45 3 -16 9 -52 12 -80 6 -49 9 -71
17 -110 3 -11 8 -47 12 -80 4 -33 9 -71 12 -85 13 -88 14 -120 4 -120 -5 0
-48 -24 -93 -54 -117 -75 -228 -140 -458 -269 -55 -31 -425 -220 -427 -218 -2
0 -33 -13 -70 -31 -38 -17 -72 -32 -78 -34 -5 -1 -56 -22 -112 -47 -56 -25
-104 -43 -107 -39 -3 3 -6 1 -6 -5 0 -6 -10 -13 -22 -16 -13 -3 -59 -19 -103
-36 -117 -46 -205 -78 -340 -123 -150 -50 -149 -49 -153 -49 -1 1 -18 -5 -37
-13 -19 -8 -35 -13 -35 -10 0 2 -13 -2 -30 -11 -16 -9 -30 -13 -30 -11 0 3
-18 -1 -40 -9 -22 -8 -41 -14 -43 -14 -1 1 -22 -5 -47 -12 -25 -7 -51 -14 -59
-15 -8 -2 -26 -6 -40 -10 -14 -4 -29 -8 -33 -9 -5 -2 -9 -3 -10 -5 -2 -1 -11
-3 -20 -5 -32 -6 -294 -67 -338 -79 -48 -13 -48 -14 -35 -81 7 -37 11 -59 20
-109 4 -21 9 -48 12 -60 2 -11 6 -30 8 -41 2 -11 7 -38 10 -60 4 -22 8 -44 9
-50 2 -5 6 -32 11 -58 l8 -49 41 6 c22 3 52 8 66 11 14 2 34 7 45 9 140 29
192 40 260 57 44 12 87 22 95 24 8 2 53 13 100 25 47 12 92 23 100 24 8 1 26
7 40 13 14 6 41 14 60 18 19 4 40 10 45 14 6 3 12 6 15 7 39 6 220 67 410 136
74 28 141 50 148 51 6 0 12 3 12 7 0 4 6 7 13 7 14 1 205 81 295 123 35 17 65
30 67 30 6 0 275 128 300 142 11 7 63 34 115 61 52 27 115 61 140 75 25 14 70
39 100 55 30 17 113 66 184 109 71 43 133 80 139 81 6 1 12 -8 13 -20 1 -13 2
-24 4 -25 1 -2 3 -12 5 -23 2 -11 7 -38 11 -60 4 -22 7 -50 8 -62 0 -13 4 -23
7 -23 3 0 6 -6 6 -12 0 -16 10 -74 19 -108 3 -14 7 -34 8 -45 2 -11 6 -38 11
-60 4 -22 9 -47 10 -55 2 -8 11 -49 20 -90 9 -41 18 -84 20 -95 6 -34 45 -219
50 -237 9 -32 28 -123 30 -143 1 -5 4 -17 7 -25 4 -8 9 -28 11 -45 5 -27 14
-73 22 -115 2 -8 4 -15 6 -15 2 0 8 -33 11 -65 2 -14 6 -27 9 -30 4 -3 9 -21
12 -40 3 -19 13 -62 21 -96 8 -34 17 -72 20 -85 3 -13 10 -44 16 -69 6 -25 13
-56 16 -70 3 -14 19 -79 36 -145 17 -66 31 -131 32 -145 0 -14 4 -27 8 -30 3
-3 9 -18 12 -35 3 -16 12 -59 21 -95 20 -79 24 -94 29 -120 3 -11 7 -24 11
-29 3 -5 7 -22 9 -38 2 -15 31 -134 65 -263 34 -129 63 -242 65 -250 27 -111
40 -158 48 -173 5 -10 6 -22 3 -27 -4 -6 -1 -10 5 -10 7 0 10 -7 7 -15 -4 -8
-2 -17 3 -20 6 -4 10 -16 10 -27 0 -12 5 -35 10 -52 9 -27 148 -515 155 -541
1 -5 5 -17 8 -25 7 -20 28 -88 31 -103 2 -7 6 -19 9 -27 7 -20 28 -88 31 -103
2 -7 6 -20 10 -29 4 -9 9 -25 11 -35 2 -10 4 -18 5 -18 1 0 4 -9 6 -20 5 -23
9 -34 17 -55 10 -26 133 -419 137 -435 1 -5 6 -16 12 -22 6 -7 8 -13 5 -13 -4
0 2 -20 13 -45 11 -25 17 -45 13 -45 -3 0 0 -7 7 -15 7 -8 9 -15 5 -15 -4 0
-3 -6 3 -12 6 -7 11 -16 11 -20 1 -4 3 -13 6 -20 43 -132 92 -303 101 -353 2
-11 8 -42 14 -70 18 -82 9 -104 -75 -188 -85 -84 -234 -122 -367 -93 -16 3
-40 9 -55 12 -16 3 -50 13 -78 22 -27 9 -53 15 -57 14 -5 -1 -8 2 -8 8 0 6 -3
9 -7 9 -5 -1 -11 0 -15 1 -5 1 -11 3 -15 4 -32 6 -532 258 -600 302 -12 8 -44
26 -70 41 -26 14 -61 34 -78 43 -161 91 -651 425 -663 452 -2 5 -8 8 -13 8
-13 0 -283 215 -388 310 -15 14 -59 52 -96 85 -71 62 -453 440 -515 510 -20
22 -65 74 -100 115 -36 41 -68 77 -71 80 -5 4 -158 196 -267 335 -4 6 -19 26
-32 45 -14 19 -28 37 -31 40 -9 8 -140 197 -198 287 -30 46 -55 83 -57 83 -6
0 -258 -171 -272 -185 -11 -10 -9 -18 10 -46 26 -38 110 -151 118 -159 3 -3
41 -50 84 -105 44 -55 82 -102 86 -105 3 -3 25 -30 50 -60 25 -30 64 -75 86
-100 23 -25 66 -72 95 -105 77 -86 431 -439 514 -512 93 -82 112 -99 164 -141
25 -21 51 -45 60 -54 8 -10 21 -18 29 -18 7 0 10 -5 7 -10 -3 -5 1 -10 9 -10
9 0 16 -4 16 -8 0 -4 12 -15 28 -24 15 -9 39 -28 54 -42 15 -14 32 -26 38 -26
5 0 10 -4 10 -9 0 -8 232 -180 320 -237 25 -16 47 -31 50 -34 7 -8 116 -81
156 -105 90 -54 129 -79 134 -84 3 -3 19 -14 35 -23 17 -9 63 -36 104 -60 41
-24 87 -50 102 -59 16 -9 36 -22 44 -29 8 -7 15 -9 15 -5 0 4 6 3 13 -3 57
-47 563 -292 762 -367 33 -13 78 -31 100 -41 22 -10 42 -18 45 -19 6 -2 15 -5
85 -29 28 -10 57 -19 65 -21 8 -2 38 -9 65 -15 150 -35 308 -30 393 14 16 8
33 12 37 8 5 -4 5 -2 1 5 -4 7 3 14 16 19 32 10 96 80 121 133 20 42 22 44 27
21 8 -34 5 -265 -5 -315 -24 -128 -116 -272 -203 -316 -15 -7 -38 -21 -52 -29
-23 -16 -136 -54 -187 -65 -13 -3 -33 -7 -45 -10 -39 -8 -142 -27 -168 -31
-88 -11 -120 -14 -203 -18 -133 -7 -219 -8 -244 -2 -13 3 -23 0 -23 -5 0 -6
-5 -7 -11 -4 -6 4 -52 9 -102 11 -51 1 -92 4 -92 4 0 1 -18 3 -40 5 -22 1 -62
6 -90 10 -27 3 -63 8 -80 10 -150 15 -474 82 -655 135 -36 11 -74 21 -85 23
-11 2 -40 10 -65 17 -25 8 -48 14 -52 16 -5 1 -9 2 -10 4 -2 1 -10 3 -18 5
-25 5 -357 111 -485 155 -66 22 -128 42 -137 45 -9 2 -26 8 -37 14 -11 6 -31
12 -45 13 -15 1 -26 7 -26 12 0 5 -3 7 -6 3 -3 -3 -26 3 -50 13 -24 11 -46 20
-49 20 -24 3 -605 217 -730 269 -137 57 -202 83 -212 84 -7 0 -13 4 -13 9 0 5
-4 7 -9 3 -5 -3 -12 -1 -15 4 -3 5 -18 12 -33 16 -24 6 -53 17 -138 55 -11 5
-54 23 -95 40 -92 38 -182 77 -322 139 -27 12 -50 21 -53 22 -2 0 -46 20 -97
43 -51 24 -118 55 -148 69 -30 13 -86 40 -125 58 -38 18 -76 34 -84 35 -8 2
-17 8 -21 14 -4 7 -11 11 -16 11 -8 -1 -141 62 -344 162 -36 18 -68 36 -71 40
-3 5 -9 9 -12 9 -19 0 -47 12 -47 19 0 5 -3 8 -7 7 -8 -2 -77 32 -250 123 -56
30 -132 70 -170 90 -78 41 -181 97 -235 127 -21 12 -68 38 -105 58 -37 21 -90
51 -118 67 -27 16 -79 45 -115 64 -36 20 -72 41 -80 48 -37 31 -57 27 -77 -12
-11 -21 -39 -74 -63 -118 -24 -44 -63 -118 -88 -165 -24 -47 -64 -121 -87
-165 -115 -215 -110 -205 -96 -205 5 0 65 -27 135 -61 69 -33 129 -60 133 -60
5 0 15 -6 23 -14 8 -7 26 -16 40 -20 14 -4 33 -14 43 -23 9 -8 17 -13 17 -9 0
4 161 -67 365 -163 17 -8 141 -60 500 -212 28 -11 65 -27 82 -35 18 -7 50 -20
70 -27 21 -8 56 -22 78 -32 22 -10 46 -19 53 -20 8 -1 28 -9 45 -17 41 -19
343 -135 472 -181 55 -20 109 -40 120 -45 11 -4 36 -13 55 -20 128 -44 347
-122 360 -128 8 -3 22 -7 31 -9 9 -2 29 -9 45 -15 16 -7 32 -13 37 -14 4 -2 9
-4 12 -5 3 -1 8 -3 13 -4 11 -2 335 -107 357 -116 24 -10 91 -31 108 -34 23
-4 122 -37 139 -47 10 -5 25 -9 35 -9 9 0 42 -8 72 -19 31 -10 79 -24 106 -31
28 -7 56 -17 62 -23 7 -5 13 -7 13 -4 0 3 44 -8 98 -25 53 -16 129 -38 169
-49 39 -10 83 -23 97 -29 14 -5 26 -8 26 -5 0 2 16 -3 35 -11 19 -8 35 -12 35
-10 0 3 18 -1 40 -9 22 -8 42 -14 45 -15 3 0 6 0 8 -1 1 0 10 -2 20 -5 9 -2
25 -6 35 -8 9 -3 17 -5 17 -6 0 -1 8 -3 17 -5 9 -2 106 -26 215 -54 109 -27
209 -52 223 -55 14 -3 45 -10 70 -16 25 -6 56 -13 70 -16 14 -2 32 -7 40 -9 8
-2 29 -7 45 -10 17 -2 41 -7 55 -11 14 -3 34 -7 45 -9 11 -2 20 -4 20 -5 0 -2
27 -7 85 -15 25 -4 49 -9 54 -12 5 -3 23 -7 40 -8 37 -3 104 -13 166 -26 25
-5 70 -11 100 -14 30 -3 75 -7 100 -10 25 -3 72 -9 105 -12 136 -16 727 -8
825 11 14 3 41 8 60 10 19 3 44 7 55 9 11 2 36 7 55 11 52 9 68 13 145 30 87
20 257 75 270 87 5 5 17 9 27 9 10 0 18 4 18 8 0 7 43 27 64 29 5 1 12 5 15
10 3 4 31 27 62 50 52 38 80 65 134 126 30 35 42 55 84 142 54 114 75 215 75
360 -1 150 -8 203 -49 387 -28 125 -86 290 -228 648 -98 247 -118 297 -122
310 -1 3 -6 16 -12 30 -57 141 -229 626 -334 945 -96 291 -92 279 -94 285 -2
11 -27 86 -32 100 -3 8 -7 20 -8 25 -2 6 -11 37 -21 70 -10 33 -19 65 -20 70
-2 6 -21 71 -44 145 -23 74 -42 142 -44 150 -1 8 -5 22 -8 30 -10 26 -31 104
-32 120 -1 9 -5 20 -8 25 -3 6 -9 28 -13 50 -9 44 -9 43 -18 65 -3 8 -10 35
-15 60 -6 25 -26 110 -47 190 -20 80 -38 152 -40 160 -24 101 -48 208 -50 220
-1 8 -7 33 -13 55 -6 22 -13 54 -16 70 -2 17 -11 62 -20 100 -25 119 -27 129
-32 160 -3 17 -17 93 -33 170 -16 77 -27 141 -26 143 4 5 45 -20 69 -40 11
-10 24 -18 28 -18 5 0 18 -9 30 -20 12 -11 28 -20 35 -20 7 0 13 -4 13 -8 0
-5 12 -15 28 -22 15 -8 35 -21 45 -29 9 -8 26 -19 36 -25 10 -6 52 -33 92 -61
41 -27 79 -52 84 -55 29 -15 131 -85 137 -94 5 -7 8 -7 8 -1 0 6 3 6 8 -1 4
-5 142 -99 307 -208 165 -109 303 -203 306 -208 3 -5 9 -9 13 -8 8 2 150 -92
154 -102 2 -5 8 -8 12 -8 5 0 37 -19 72 -43 35 -23 71 -46 80 -52 53 -33 385
-255 395 -264 7 -6 17 -11 23 -11 5 0 10 -4 10 -10 0 -5 4 -10 9 -10 12 0 165
-101 169 -112 2 -4 9 -8 16 -8 6 0 21 -7 31 -16 11 -8 121 -82 245 -164 124
-82 230 -153 236 -157 5 -4 17 -12 26 -18 9 -5 53 -33 97 -62 l81 -52 47 67
c26 37 51 72 55 77 5 6 22 28 38 50 16 22 33 45 37 50 5 6 19 27 33 47 14 21
28 38 33 38 4 0 7 7 7 15 0 8 4 15 8 15 5 0 14 10 19 23 12 23 36 57 66 88 9
11 17 22 17 26 0 3 7 14 16 24 18 20 35 10 -191 109 -66 29 -140 62 -165 73
-25 12 -47 22 -50 22 -3 1 -25 11 -50 22 -25 11 -67 30 -95 42 -103 46 -141
64 -195 89 -30 15 -57 27 -60 27 -20 3 -80 31 -80 37 0 4 -3 7 -7 6 -9 -1 -26
5 -103 40 -30 13 -111 49 -180 79 -69 30 -138 61 -154 69 -16 8 -35 14 -43 14
-7 0 -13 4 -13 9 0 5 -11 12 -24 15 -14 3 -53 19 -88 35 -61 28 -127 57 -198
88 -19 9 -53 24 -75 34 -226 101 -315 139 -324 139 -6 0 -11 4 -11 9 0 5 -12
12 -27 16 -16 3 -57 20 -93 37 -36 16 -81 37 -100 45 -19 9 -57 26 -85 38 -27
13 -84 38 -125 55 -41 18 -98 43 -127 56 -28 13 -57 24 -62 24 -6 0 -11 5 -11
12 0 6 -3 8 -6 5 -4 -3 -16 -1 -28 5 -11 7 -23 13 -26 14 -3 0 -23 9 -45 19
-60 26 -236 104 -270 119 -16 8 -55 26 -86 40 -31 14 -61 26 -66 26 -18 0 -33
25 -37 66 -3 21 -7 49 -10 60 -2 12 -7 39 -11 60 -3 22 -8 50 -10 64 -2 14 -9
57 -16 95 -6 39 -13 79 -15 90 -1 11 -5 38 -9 60 -3 22 -7 51 -10 65 -10 51
-16 95 -20 136 -1 24 -6 47 -9 52 -6 10 9 23 104 87 41 27 84 58 94 67 11 10
25 18 32 18 7 0 14 4 16 8 2 5 24 23 50 40 25 18 53 38 60 44 7 7 29 24 48 38
19 13 40 28 45 32 72 56 237 187 261 207 17 14 52 44 78 66 26 21 58 48 70 60
12 11 56 49 96 85 92 80 461 449 552 550 104 116 162 183 216 248 15 19 39 48
54 65 65 76 188 238 188 247 0 5 5 10 10 10 6 0 10 5 10 10 0 6 5 16 11 23 19
22 114 171 134 212 11 22 22 42 25 45 10 10 50 96 50 108 0 6 5 12 10 12 6 0
10 8 10 18 0 10 3 22 8 26 4 4 7 11 7 14 1 4 6 17 13 30 7 12 10 22 7 22 -3 0
1 13 10 30 8 16 15 32 16 35 0 2 6 24 15 47 14 41 40 143 48 196 15 90 18 127
17 212 0 52 -3 109 -5 125 -11 75 -18 111 -23 117 -2 5 -6 16 -8 27 -7 36 -58
156 -84 196 -14 22 -26 42 -26 45 -1 20 -130 162 -191 210 -69 55 -226 146
-285 165 -13 4 -26 8 -29 10 -30 13 -166 52 -215 61 -11 2 -33 7 -50 11 -16 3
-37 7 -45 8 -25 3 -113 15 -150 21 -42 7 -475 15 -481 10z m161 -338 c0 -4 11
-3 24 2 13 5 26 6 29 3 5 -4 36 -9 132 -18 17 -1 30 -4 30 -5 0 -1 18 -3 40
-5 22 -1 40 -4 40 -5 0 -2 31 -8 70 -14 69 -10 202 -52 291 -91 174 -77 304
-215 344 -365 33 -123 12 -308 -54 -471 -40 -100 -99 -218 -138 -276 -15 -23
-28 -47 -28 -53 0 -6 -7 -13 -15 -16 -8 -4 -15 -10 -15 -16 0 -20 -215 -290
-364 -457 -56 -62 -460 -465 -517 -516 -31 -28 -89 -79 -129 -115 -40 -36 -79
-69 -88 -74 -8 -4 -22 -16 -31 -25 -9 -9 -36 -32 -60 -51 -24 -19 -60 -50 -80
-67 -20 -18 -42 -33 -48 -33 -7 0 -13 -4 -13 -8 0 -5 -28 -29 -62 -54 -35 -26
-72 -54 -83 -63 -49 -39 -270 -195 -277 -195 -4 0 -9 6 -9 13 -1 6 -3 21 -4
32 -1 11 -5 47 -9 80 -4 33 -9 71 -11 85 -3 23 -9 83 -20 205 -3 28 -7 70 -10
95 -10 97 -15 147 -20 200 -2 30 -7 87 -10 125 -12 154 -16 203 -21 275 -8
130 -14 224 -17 257 -2 18 2 35 7 37 8 3 8 7 0 13 -7 5 -10 66 -9 183 2 96 3
175 4 175 1 0 4 35 6 78 4 64 20 181 41 291 8 43 44 175 55 202 7 16 13 35 15
42 5 27 79 170 117 226 73 108 192 213 307 271 58 29 190 77 190 69 0 -3 8 -1
18 5 18 9 74 19 162 27 30 3 56 6 57 8 6 6 163 0 163 -6z"/>
</g>
</svg>
